<svg width="306" height="306" viewBox="0 0 306 306" fill="none" xmlns="http://www.w3.org/2000/svg">
<g clip-path="url(#clip0_4_81)">
<path d="M67.5 183C82.7 181.4 102.833 172.667 111 168.5C135.5 168.833 185.1 169.7 187.5 170.5C189.9 171.3 212.5 179.5 223.5 183.5C227.1 185.9 231 186.833 232.5 187C253.5 191 264.5 197.5 273 202C279.8 205.6 297.833 225.5 306 235V307H58.5H0V281V212.5C9.83333 206.5 31.2 193.8 38 191C44.8 188.2 60.5 184.5 67.5 183Z" fill="#070739" stroke="black"/>
<path d="M187 173.5V170.5L188 161.5L111.5 158.5V170.5C110.333 172.167 107.8 175.9 107 177.5C106 179.5 103 189.5 103.5 198C104 206.5 110 223.5 112.5 228.5C115 233.5 119.5 239 128.5 247C137.5 255 147 256.5 151.5 256.5C156 256.5 162.5 251 165 249C167.5 247 174 241 179 234.5C184 228 189.5 214.5 192 207C194.5 199.5 194 194.5 193.5 186.5C193.1 180.1 189 175.167 187 173.5Z" fill="#F1C7B9" stroke="black"/>
<path d="M108.267 68.8252L107.767 54.3252C113.367 45.1252 125.434 40.4918 130.767 39.3252C143.167 36.9252 154.267 38.3252 158.267 39.3252C178.667 43.3252 188.434 55.3252 190.767 60.8252V68.8252C195.567 73.2252 198.767 80.9918 199.767 84.3252C203.767 101.825 205.267 109.325 201.267 131.325C197.267 153.325 182.767 169.825 169.267 177.825C158.467 184.225 140.767 180.492 133.267 177.825C110.767 163.825 104.767 146.825 100.767 130.325C97.5669 117.125 99.4336 94.1585 100.767 84.3252L108.267 68.8252Z" fill="#F1C7B9" stroke="black"/>
<path d="M123 88.5C117.8 86.9 111.167 88.1667 108.5 89H108H107V88L109 86C111 84.6667 116.7 83.2 125.5 82C134.3 80.8 140.167 83.8333 142 86L139.5 90C136.167 90.1667 128.2 90.1 123 88.5Z" fill="black" stroke="black"/>
<path d="M160.5 89.5L158.5 90.5L156 86L159 84L160.5 89.5Z" fill="black" stroke="black"/>
<path d="M163 88.5L161.5 83.5L165.5 81.5C168.167 81 174.8 80 180 80C185.2 80 188.167 81.6667 189 82.5L193.5 87.5L192 87C186.4 85 170.333 87.1667 163 88.5Z" fill="black" stroke="black"/>
<path d="M205.5 124.5C205.5 127.3 203.167 130.333 202 131.5C204.8 101.1 202.5 93.1667 201 93C202 89 207.5 91 208 93C208.4 94.6 206.5 99.6667 205.5 102C206.7 106 206.667 109.333 206.5 110.5C204 116 205.5 121 205.5 124.5Z" fill="#F2D2C8" stroke="black"/>
<path d="M171 148H131C135.156 151.835 142.775 154.164 146.065 154.849C147.797 154.963 152.195 155.123 155.935 154.849C159.675 154.575 167.537 150.169 171 148Z" fill="#E3A8AF" fill-opacity="0.71" stroke="#D69595" stroke-width="0.3"/>
<path d="M171 148H131C135 144.8 144 143.333 148 143C150 143.8 153.5 143.333 155 143C160.2 143.267 167.833 146.444 171 148Z" fill="#E49997" fill-opacity="0.49" stroke="#B88181" stroke-width="0.2"/>
<path d="M96.5 95C96.9 93.4 98.6667 94.6667 99.5 95.5L98.5 119.5C97.3333 120.333 95.1 121.4 95.5 119C95.9 116.6 97 113.333 97.5 112V102C97 100.333 96.1 96.6 96.5 95Z" fill="#F2D2C8" stroke="black"/>
<path d="M98.3193 121.231C98.3405 120.17 98.3531 118.944 98.3531 117.599C98.2644 116.052 98.2495 114.247 98.2912 112.279C98.0877 103.408 97.3324 92.4076 95.3193 87.231C92.5193 80.031 94.8193 65.231 96.3193 58.731C96.1526 54.5644 97.3193 45.031 103.319 40.231C108.486 32.5644 123.319 16.031 141.319 11.231C154.653 8.23103 185.219 8.83103 200.819 35.231L209.319 49.731C207.986 56.5644 205.319 73.231 205.319 85.231V114.231L203.319 117.231C203.486 111.564 203.319 98.731 201.319 92.731C200.319 85.731 196.719 71.131 190.319 68.731V60.231C186.319 53.0644 172.919 38.631 151.319 38.231C149.986 37.8977 144.919 37.431 135.319 38.231C130.653 37.8977 118.519 40.631 107.319 54.231L107.819 68.231L100.819 83.731C99.8821 90.6428 98.4838 103.203 98.2912 112.279C98.3348 114.176 98.3531 115.975 98.3531 117.599C98.4372 119.068 98.5878 120.305 98.8193 121.231H98.3193Z" fill="black" stroke="black"/>
<path d="M141.5 129.5C143 129.5 146.1 129.9 146.5 131.5" stroke="black"/>
<path d="M154.5 133C156.167 131.5 159.9 128.6 161.5 129" stroke="black"/>
<path d="M165 121.5C167.167 124.5 169.1 131.1 159.5 133.5" stroke="black"/>
<path d="M138.756 121C137.366 123.667 135.87 129.6 141 132" stroke="black"/>
<path d="M111.596 158C112.128 163.197 112.554 174.272 110 177" stroke="black"/>
<path d="M187.725 161.5C187.202 166.5 186.313 177.3 186.941 180.5" stroke="black"/>
</g>
<defs>
<clipPath id="clip0_4_81">
<rect width="306" height="306" fill="white"/>
</clipPath>
</defs>
</svg>
